<svg width="18" height="18" viewBox="0 0 18 18" fill="none" xmlns="http://www.w3.org/2000/svg">
<path d="M5.38394 0.692383C2.83902 0.692383 0.768555 2.76284 0.768555 5.30777V12.6924C0.768555 15.2373 2.83902 17.3078 5.38394 17.3078H12.7686C15.3135 17.3078 17.3839 15.2373 17.3839 12.6924V5.30777C17.3839 2.76284 15.3135 0.692383 12.7686 0.692383H5.38394ZM5.38394 2.53854H12.7686C14.2953 2.53854 15.5378 3.781 15.5378 5.30777V12.6924C15.5378 14.2192 14.2953 15.4616 12.7686 15.4616H5.38394C3.85717 15.4616 2.61471 14.2192 2.61471 12.6924V5.30777C2.61471 3.781 3.85717 2.53854 5.38394 2.53854ZM13.6916 3.46161C13.4468 3.46161 13.212 3.55887 13.0389 3.73198C12.8658 3.90509 12.7686 4.13988 12.7686 4.38469C12.7686 4.62951 12.8658 4.86429 13.0389 5.0374C13.212 5.21052 13.4468 5.30777 13.6916 5.30777C13.9364 5.30777 14.1712 5.21052 14.3443 5.0374C14.5175 4.86429 14.6147 4.62951 14.6147 4.38469C14.6147 4.13988 14.5175 3.90509 14.3443 3.73198C14.1712 3.55887 13.9364 3.46161 13.6916 3.46161ZM9.07625 4.38469C6.53132 4.38469 4.46086 6.45515 4.46086 9.00008C4.46086 11.545 6.53132 13.6155 9.07625 13.6155C11.6212 13.6155 13.6916 11.545 13.6916 9.00008C13.6916 6.45515 11.6212 4.38469 9.07625 4.38469ZM9.07625 6.23084C10.603 6.23084 11.8455 7.47331 11.8455 9.00008C11.8455 10.5268 10.603 11.7693 9.07625 11.7693C7.54948 11.7693 6.30702 10.5268 6.30702 9.00008C6.30702 7.47331 7.54948 6.23084 9.07625 6.23084Z" fill="white"/>
</svg>
