<svg width="18" height="18" viewBox="0 0 18 18" fill="none" xmlns="http://www.w3.org/2000/svg">
<path d="M2.61471 0.692383C1.59471 0.692383 0.768555 1.51854 0.768555 2.53854V15.4616C0.768555 16.4816 1.59471 17.3078 2.61471 17.3078H15.5378C16.5578 17.3078 17.3839 16.4816 17.3839 15.4616V2.53854C17.3839 1.51854 16.5578 0.692383 15.5378 0.692383H2.61471ZM2.61471 2.53854H15.5378V15.4616H2.61471V2.53854ZM5.18021 3.75368C4.38914 3.75368 3.91459 4.22922 3.91459 4.86245C3.91459 5.49569 4.38919 5.96943 5.10089 5.96943C5.89196 5.96943 6.36651 5.49569 6.36651 4.86245C6.36651 4.22922 5.89191 3.75368 5.18021 3.75368ZM3.97769 7.15392V13.6155H6.30702V7.15392H3.97769ZM8.22889 7.15392V13.6155H10.5582V10.0836C10.5582 9.03222 11.3083 8.88108 11.5336 8.88108C11.7588 8.88108 12.3611 9.10699 12.3611 10.0836V13.6155H14.6147V10.0836C14.6147 8.05561 13.7135 7.15392 12.5865 7.15392C11.4594 7.15392 10.8582 7.52921 10.5582 8.05536V7.15392H8.22889Z" fill="white"/>
</svg>
