<svg width="200" height="37" viewBox="0 0 200 37" fill="none" xmlns="http://www.w3.org/2000/svg">
<path d="M42.5 35.3H53V14.7667C53 5.46667 50.2333 0.299998 41.5 0.299998C36.7 0.299998 33.0333 2.26667 30.4333 6.1C28.8 2.36667 25.7 0.299998 20.2667 0.299998C15.1 0.299998 12 3.06667 10.5333 5.6V1.1H0V35.3333H10.5V17.5333C10.5 11.4667 11.7667 8.5 16.3 8.5C21.1 8.5 21.2333 12.5333 21.2333 17.4V35.3333H31.7333V17.5333C31.7333 11.4667 32.8667 8.5 37.5333 8.5C42.4 8.5 42.4667 12.5333 42.4667 17.4L42.5 35.3ZM79.6667 20.9C79.6667 27.1667 76.5 29 72.2667 29C69.5 29 67.8333 27.5333 67.8333 25.3333C67.8333 21.6667 72.6333 20.6 79.7 20.1V20.9H79.6667ZM90.4 35.3C89.7667 32.4 89.5667 26.2667 89.6333 21.8333L89.7667 14.4333C89.9667 4 84.2667 0.0333303 74.5333 0.0333303C62.9 0.0333303 58.6667 5.73333 58.1667 12.1667H67.9667C68.3333 8.83333 70.3 7.16667 73.6 7.16667C77.3333 7.16667 79.4 8.63333 79.4 12.6667V14C65.6333 14.9333 57.0333 17.6 57.0333 26.1333C57.0333 32.3333 62.4 36.1667 68.9 36.1667C73.7667 36.1667 77.4333 34.8333 79.9667 31.2333L80.1 35.4H90.4V35.3ZM115.933 17.6667L127.867 1.16667H116.933L110.433 10.4L104.233 1.16667H92.3L104.3 18.2333L91.8 35.3H102.967L109.8 25.4333L116.567 35.3H128.433L115.933 17.6667ZM152.567 18.0667C152.567 25.2667 149.4 28.0333 145.167 28.0333C140.933 28.0333 137.767 25.2667 137.767 18.0667C137.767 10.8 141.1 8.1 145.167 8.1C149.267 8.2 152.567 10.8 152.567 18.0667ZM163.233 18.0667C163.233 5.63333 154.567 0 145.1 0C135.633 0 126.967 5.63333 126.967 18.0667C126.967 30.5 135.633 36.2 145.1 36.2C154.567 36.2333 163.233 30.5 163.233 18.0667ZM200 35.3V14.7667C200 5.46667 197.233 0.299998 188.5 0.299998C183.133 0.299998 179.4 3.06667 177.833 5.6V1.1H167.333V35.3333H177.833V17.7667C177.833 11.5 179.733 8.46667 184.2 8.46667C189.267 8.46667 189.5 12.5 189.5 17.3667V35.3667H200V35.3Z" fill="#DC0000"/>
</svg>
