<?xml version="1.0" encoding="UTF-8"?>
<svg data-bbox="25.59 45.85 613.99 191.71" viewBox="0 0 841.89 283.46" xmlns="http://www.w3.org/2000/svg" data-type="color">
    <g>
        <path d="M172.58 45.85c-9.06 0-16.39 7.35-16.39 16.42s7.32 16.38 16.39 16.38 16.39-7.33 16.39-16.38-7.34-16.42-16.39-16.42" fill="#00a4ef" data-color="1"/>
        <path d="m136.63 114.81 20.47-26.95a4.18 4.18 0 0 0 .22-4.73l-8.7-13.95a4.18 4.18 0 0 0-3.57-1.96l-37.53.26-20.58-.02c-1.61 0-2.33 2.02-1.07 3.04l5.77 4.65c.81.65 1.77 1.1 2.8 1.29l35.74 6.73-44.22 47.52-58.2 8.27c-2.02.29-2.88 2.72-1.49 4.21l5.68 6.1a5.8 5.8 0 0 0 4.36 1.85l56.18-.92c2.08-.03 4.11-.62 5.89-1.71l13.46-8.2 28.41 22.55a5.5 5.5 0 0 1 2.04 3.59l5.41 39.82a3.784 3.784 0 0 0 3.75 3.28h2.89a3.79 3.79 0 0 0 3.79-3.77l.17-44.19c0-2.28-.72-4.5-2.08-6.33l-24.79-33.41 5.18-7.01Z" fill="#00a4ef" data-color="1"/>
        <path d="m278.08 171.17-19.37-35.04h-15.38v35.04h-21V72.55h46.13c20.55 0 33.27 13.45 33.27 31.79 0 17.3-11.09 26.76-21.73 29.28l22.33 37.56h-24.25Zm2.07-66.98c0-8.13-6.36-13.16-14.64-13.16h-22.18v26.61h22.18c8.28 0 14.64-5.03 14.64-13.45" fill="#004149" data-color="2"/>
        <path d="M317.4 171.17V72.55h69.79v18.48H338.4v20.7h47.76v18.48H338.4v22.47h48.79v18.48H317.4Z" fill="#004149" data-color="2"/>
        <path d="M403.6 171.17V72.55h46.13c21.44 0 33.12 14.49 33.12 31.79s-11.83 31.64-33.12 31.64h-25.14v35.19zm57.81-66.83c0-8.28-6.36-13.31-14.64-13.31h-22.18v26.47h22.18c8.28 0 14.64-5.03 14.64-13.16" fill="#004149" data-color="2"/>
        <path d="M495.12 171.17V72.55h21.14v80.14h41.7v18.48z" fill="#004149" data-color="2"/>
        <path d="M580.87 171.17v-40.36l-37.85-58.26h23.95l24.4 39.48 24.4-39.48h23.81l-37.7 58.26v40.36h-21Z" fill="#004149" data-color="2"/>
        <path d="m245.8 236.82-9.05-15.34h-7.21v15.34h-7.21v-41.09h18.05c8.13 0 13.49 5.24 13.49 12.87s-4.81 11.27-9.79 12.07l10.1 16.14h-8.38Zm.68-28.28c0-3.94-2.96-6.47-7.02-6.47h-9.92v13.06h9.92c4.07 0 7.02-2.59 7.02-6.59" fill="#00a4ef" data-color="1"/>
        <path d="M259.27 216.31c0-12.26 8.69-21.25 21.01-21.25s21.01 8.99 21.01 21.25-8.75 21.25-21.01 21.25-21.01-8.99-21.01-21.25m34.62 0c0-8.5-5.36-14.85-13.61-14.85s-13.61 6.34-13.61 14.85 5.3 14.85 13.61 14.85 13.61-6.41 13.61-14.85" fill="#00a4ef" data-color="1"/>
        <path d="M308.19 236.82v-41.09h20.2c7.58 0 11.7 4.68 11.7 10.47 0 5.11-3.33 8.62-7.15 9.42 4.44.68 7.95 5.05 7.95 10.04 0 6.41-4.19 11.15-11.95 11.15h-20.76Zm24.51-29.45c0-3.02-2.09-5.3-5.73-5.3h-11.58v10.6h11.58c3.63 0 5.73-2.16 5.73-5.3m.8 17.37c0-3.08-2.16-5.73-6.22-5.73h-11.89v11.46h11.89c3.88 0 6.22-2.16 6.22-5.73" fill="#00a4ef" data-color="1"/>
        <path d="M346.38 216.31c0-12.26 8.69-21.25 21.01-21.25s21.01 8.99 21.01 21.25-8.75 21.25-21.01 21.25-21.01-8.99-21.01-21.25m34.62 0c0-8.5-5.36-14.85-13.61-14.85s-13.61 6.34-13.61 14.85 5.3 14.85 13.61 14.85S381 224.75 381 216.31" fill="#00a4ef" data-color="1"/>
        <path d="m405.95 236.82-16.14-41.09H398l12.44 33.2 12.44-33.2h8.19l-16.14 41.09h-8.99Z" fill="#00a4ef" data-color="1"/>
        <path d="M435.52 236.82v-41.09h28.15v6.34h-20.94v10.6h20.51v6.34h-20.51v11.46h20.94v6.34h-28.15Z" fill="#00a4ef" data-color="1"/>
        <path d="m494.54 236.82-9.05-15.34h-7.21v15.34h-7.21v-41.09h18.05c8.13 0 13.49 5.24 13.49 12.87s-4.81 11.27-9.79 12.07l10.1 16.14h-8.38Zm.67-28.28c0-3.94-2.96-6.47-7.02-6.47h-9.92v13.06h9.92c4.07 0 7.02-2.59 7.02-6.59" fill="#00a4ef" data-color="1"/>
        <path d="m507.17 231.03 4.07-5.61c2.77 3.02 7.27 5.73 13 5.73s8.19-2.9 8.19-5.67c0-8.62-23.9-3.26-23.9-18.36 0-6.84 5.91-12.07 14.97-12.07 6.34 0 11.58 2.09 15.34 5.79l-4.07 5.36c-3.26-3.26-7.64-4.74-11.95-4.74s-6.9 2.09-6.9 5.11c0 7.7 23.9 2.96 23.9 18.23 0 6.84-4.87 12.75-15.89 12.75-7.58 0-13.06-2.71-16.75-6.53Z" fill="#00a4ef" data-color="1"/>
        <path d="M546.41 236.82v-41.09h28.15v6.34h-20.94v10.6h20.51v6.34h-20.51v11.46h20.94v6.34h-28.15Z" fill="#00a4ef" data-color="1"/>
    </g>
</svg>
